<mxfile host="65bd71144e">
    <diagram id="TFnJ2Su43XxsaO9B1mIR" name="Page-1">
        <mxGraphModel dx="2830" dy="768" grid="1" gridSize="10" guides="1" tooltips="1" connect="1" arrows="1" fold="1" page="1" pageScale="1" pageWidth="850" pageHeight="1100" math="0" shadow="0">
            <root>
                <mxCell id="0"/>
                <mxCell id="1" parent="0"/>
                <mxCell id="11" style="edgeStyle=none;html=1;exitX=0.5;exitY=1;exitDx=0;exitDy=0;entryX=0.5;entryY=0;entryDx=0;entryDy=0;" parent="1" source="9" target="10" edge="1">
                    <mxGeometry relative="1" as="geometry"/>
                </mxCell>
                <mxCell id="13" style="edgeStyle=none;html=1;exitX=1;exitY=0.5;exitDx=0;exitDy=0;entryX=0;entryY=0.5;entryDx=0;entryDy=0;" parent="1" source="9" target="12" edge="1">
                    <mxGeometry relative="1" as="geometry"/>
                </mxCell>
                <mxCell id="23" style="edgeStyle=none;html=1;exitX=0;exitY=0.5;exitDx=0;exitDy=0;entryX=1;entryY=0.5;entryDx=0;entryDy=0;" parent="1" source="9" target="21" edge="1">
                    <mxGeometry relative="1" as="geometry"/>
                </mxCell>
                <mxCell id="9" value="main" style="ellipse;whiteSpace=wrap;html=1;" parent="1" vertex="1">
                    <mxGeometry x="250" y="80" width="80" height="80" as="geometry"/>
                </mxCell>
                <mxCell id="27" style="edgeStyle=none;html=1;exitX=0.5;exitY=1;exitDx=0;exitDy=0;entryX=0.5;entryY=0;entryDx=0;entryDy=0;" parent="1" source="10" target="25" edge="1">
                    <mxGeometry relative="1" as="geometry"/>
                </mxCell>
                <mxCell id="28" style="edgeStyle=none;html=1;exitX=0.5;exitY=1;exitDx=0;exitDy=0;entryX=-0.019;entryY=0.467;entryDx=0;entryDy=0;entryPerimeter=0;" parent="1" source="10" target="24" edge="1">
                    <mxGeometry relative="1" as="geometry">
                        <mxPoint x="390" y="670" as="targetPoint"/>
                        <Array as="points">
                            <mxPoint x="280" y="600"/>
                        </Array>
                    </mxGeometry>
                </mxCell>
                <mxCell id="46" style="edgeStyle=none;html=1;exitX=0;exitY=0.5;exitDx=0;exitDy=0;entryX=0.5;entryY=0;entryDx=0;entryDy=0;" parent="1" source="10" target="45" edge="1">
                    <mxGeometry relative="1" as="geometry">
                        <Array as="points">
                            <mxPoint x="120" y="240"/>
                        </Array>
                    </mxGeometry>
                </mxCell>
                <mxCell id="10" value="Showcase" style="whiteSpace=wrap;html=1;" parent="1" vertex="1">
                    <mxGeometry x="230" y="210" width="120" height="60" as="geometry"/>
                </mxCell>
                <mxCell id="18" style="edgeStyle=none;html=1;exitX=1;exitY=0.5;exitDx=0;exitDy=0;" parent="1" source="12" target="17" edge="1">
                    <mxGeometry relative="1" as="geometry"/>
                </mxCell>
                <mxCell id="12" value="Donate" style="whiteSpace=wrap;html=1;" parent="1" vertex="1">
                    <mxGeometry x="460" y="90" width="120" height="60" as="geometry"/>
                </mxCell>
                <mxCell id="14" value="GCASH" style="whiteSpace=wrap;html=1;" parent="1" vertex="1">
                    <mxGeometry x="800" y="60" width="120" height="60" as="geometry"/>
                </mxCell>
                <mxCell id="15" value="Paypal" style="whiteSpace=wrap;html=1;" parent="1" vertex="1">
                    <mxGeometry x="800" y="130" width="120" height="60" as="geometry"/>
                </mxCell>
                <mxCell id="19" style="edgeStyle=none;html=1;exitX=1;exitY=0.5;exitDx=0;exitDy=0;entryX=0.011;entryY=0.439;entryDx=0;entryDy=0;entryPerimeter=0;" parent="1" source="17" target="14" edge="1">
                    <mxGeometry relative="1" as="geometry">
                        <Array as="points">
                            <mxPoint x="790" y="120"/>
                        </Array>
                    </mxGeometry>
                </mxCell>
                <mxCell id="20" style="edgeStyle=none;html=1;exitX=0.5;exitY=1;exitDx=0;exitDy=0;" parent="1" source="17" target="15" edge="1">
                    <mxGeometry relative="1" as="geometry">
                        <Array as="points">
                            <mxPoint x="680" y="200"/>
                            <mxPoint x="750" y="180"/>
                        </Array>
                    </mxGeometry>
                </mxCell>
                <mxCell id="17" value="Or" style="rhombus;whiteSpace=wrap;html=1;" parent="1" vertex="1">
                    <mxGeometry x="640" y="80" width="80" height="80" as="geometry"/>
                </mxCell>
                <mxCell id="34" style="edgeStyle=none;html=1;entryX=0.5;entryY=0;entryDx=0;entryDy=0;startArrow=none;exitX=0;exitY=0.5;exitDx=0;exitDy=0;" parent="1" source="78" target="33" edge="1">
                    <mxGeometry relative="1" as="geometry">
                        <mxPoint x="-520" y="380" as="sourcePoint"/>
                    </mxGeometry>
                </mxCell>
                <mxCell id="21" value="Secret" style="whiteSpace=wrap;html=1;" parent="1" vertex="1">
                    <mxGeometry x="-310" y="50" width="120" height="60" as="geometry"/>
                </mxCell>
                <mxCell id="24" value="Software" style="whiteSpace=wrap;html=1;" parent="1" vertex="1">
                    <mxGeometry x="400" y="520" width="120" height="60" as="geometry"/>
                </mxCell>
                <mxCell id="31" style="edgeStyle=none;html=1;exitX=1;exitY=0.5;exitDx=0;exitDy=0;entryX=0;entryY=0.5;entryDx=0;entryDy=0;" parent="1" source="25" target="30" edge="1">
                    <mxGeometry relative="1" as="geometry"/>
                </mxCell>
                <mxCell id="32" style="edgeStyle=none;html=1;exitX=1;exitY=0.5;exitDx=0;exitDy=0;entryX=0;entryY=0.5;entryDx=0;entryDy=0;" parent="1" source="25" target="29" edge="1">
                    <mxGeometry relative="1" as="geometry"/>
                </mxCell>
                <mxCell id="25" value="Games" style="whiteSpace=wrap;html=1;" parent="1" vertex="1">
                    <mxGeometry x="400" y="400" width="120" height="60" as="geometry"/>
                </mxCell>
                <mxCell id="29" value="Android" style="whiteSpace=wrap;html=1;" parent="1" vertex="1">
                    <mxGeometry x="610" y="450" width="120" height="60" as="geometry"/>
                </mxCell>
                <mxCell id="30" value="Desktop" style="whiteSpace=wrap;html=1;" parent="1" vertex="1">
                    <mxGeometry x="610" y="350" width="120" height="60" as="geometry"/>
                </mxCell>
                <mxCell id="40" value="Google Play Store" style="whiteSpace=wrap;html=1;" parent="1" vertex="1">
                    <mxGeometry x="730" y="450" width="120" height="60" as="geometry"/>
                </mxCell>
                <mxCell id="41" value="Steam" style="whiteSpace=wrap;html=1;" parent="1" vertex="1">
                    <mxGeometry x="730" y="350" width="120" height="60" as="geometry"/>
                </mxCell>
                <mxCell id="48" value="" style="group" parent="1" vertex="1" connectable="0">
                    <mxGeometry y="250" width="120" height="180" as="geometry"/>
                </mxCell>
                <mxCell id="42" value="Account" style="whiteSpace=wrap;html=1;" parent="48" vertex="1">
                    <mxGeometry y="60" width="120" height="60" as="geometry"/>
                </mxCell>
                <mxCell id="44" value="Google Account" style="whiteSpace=wrap;html=1;" parent="48" vertex="1">
                    <mxGeometry y="120" width="120" height="60" as="geometry"/>
                </mxCell>
                <mxCell id="45" value="" style="shape=actor;whiteSpace=wrap;html=1;" parent="48" vertex="1">
                    <mxGeometry x="40" width="40" height="60" as="geometry"/>
                </mxCell>
                <mxCell id="70" value="" style="edgeStyle=none;html=1;exitX=0.5;exitY=1;exitDx=0;exitDy=0;entryX=0.5;entryY=0;entryDx=0;entryDy=0;endArrow=none;" parent="1" source="21" target="69" edge="1">
                    <mxGeometry relative="1" as="geometry">
                        <mxPoint x="-250" y="110" as="sourcePoint"/>
                        <mxPoint x="-635" y="110" as="targetPoint"/>
                    </mxGeometry>
                </mxCell>
                <mxCell id="69" value="Gate Keep" style="whiteSpace=wrap;html=1;" parent="1" vertex="1">
                    <mxGeometry x="-545" y="140" width="120" height="60" as="geometry"/>
                </mxCell>
                <mxCell id="33" value="School" style="whiteSpace=wrap;html=1;" parent="1" vertex="1">
                    <mxGeometry x="-1055" y="300" width="120" height="60" as="geometry"/>
                </mxCell>
                <mxCell id="35" value="Schedule" style="whiteSpace=wrap;html=1;" parent="1" vertex="1">
                    <mxGeometry x="-1065" y="585" width="120" height="60" as="geometry"/>
                </mxCell>
                <mxCell id="36" value="Code" style="whiteSpace=wrap;html=1;" parent="1" vertex="1">
                    <mxGeometry x="-1065" y="525" width="120" height="60" as="geometry"/>
                </mxCell>
                <mxCell id="37" value="Subject" style="whiteSpace=wrap;html=1;" parent="1" vertex="1">
                    <mxGeometry x="-1065" y="405" width="120" height="60" as="geometry"/>
                </mxCell>
                <mxCell id="49" value="Teacher" style="whiteSpace=wrap;html=1;" parent="1" vertex="1">
                    <mxGeometry x="-1065" y="465" width="120" height="60" as="geometry"/>
                </mxCell>
                <mxCell id="50" value="Time" style="whiteSpace=wrap;html=1;" parent="1" vertex="1">
                    <mxGeometry x="-880" y="545" width="120" height="60" as="geometry"/>
                </mxCell>
                <mxCell id="51" value="Start" style="whiteSpace=wrap;html=1;" parent="1" vertex="1">
                    <mxGeometry x="-720" y="515" width="120" height="60" as="geometry"/>
                </mxCell>
                <mxCell id="53" value="End" style="whiteSpace=wrap;html=1;" parent="1" vertex="1">
                    <mxGeometry x="-720" y="575" width="120" height="60" as="geometry"/>
                </mxCell>
                <mxCell id="55" value="Weeday" style="whiteSpace=wrap;html=1;" parent="1" vertex="1">
                    <mxGeometry x="-880" y="605" width="120" height="60" as="geometry"/>
                </mxCell>
                <mxCell id="57" value="Course" style="whiteSpace=wrap;html=1;" parent="1" vertex="1">
                    <mxGeometry x="-1420" y="520" width="120" height="60" as="geometry"/>
                </mxCell>
                <mxCell id="58" value="Section" style="whiteSpace=wrap;html=1;" parent="1" vertex="1">
                    <mxGeometry x="-1420" y="580" width="120" height="60" as="geometry"/>
                </mxCell>
                <mxCell id="67" style="edgeStyle=none;html=1;exitX=1;exitY=0.5;exitDx=0;exitDy=0;" parent="1" source="65" edge="1">
                    <mxGeometry relative="1" as="geometry">
                        <mxPoint x="-1070.0000000000002" y="440" as="targetPoint"/>
                    </mxGeometry>
                </mxCell>
                <mxCell id="68" style="edgeStyle=none;html=1;exitX=1;exitY=0.5;exitDx=0;exitDy=0;entryX=0;entryY=0.5;entryDx=0;entryDy=0;" parent="1" source="65" target="36" edge="1">
                    <mxGeometry relative="1" as="geometry"/>
                </mxCell>
                <mxCell id="65" value="Search By" style="whiteSpace=wrap;html=1;" parent="1" vertex="1">
                    <mxGeometry x="-1270" y="515" width="120" height="60" as="geometry"/>
                </mxCell>
                <mxCell id="60" style="edgeStyle=none;html=1;exitX=0.5;exitY=1;exitDx=0;exitDy=0;entryX=0.5;entryY=0;entryDx=0;entryDy=0;" parent="1" source="33" target="37" edge="1">
                    <mxGeometry relative="1" as="geometry"/>
                </mxCell>
                <mxCell id="61" style="edgeStyle=none;html=1;exitX=1;exitY=0.5;exitDx=0;exitDy=0;entryX=0;entryY=0.5;entryDx=0;entryDy=0;" parent="1" source="35" target="50" edge="1">
                    <mxGeometry relative="1" as="geometry"/>
                </mxCell>
                <mxCell id="62" style="edgeStyle=none;html=1;exitX=1;exitY=0.5;exitDx=0;exitDy=0;entryX=0;entryY=0.5;entryDx=0;entryDy=0;" parent="1" source="50" target="51" edge="1">
                    <mxGeometry relative="1" as="geometry"/>
                </mxCell>
                <mxCell id="63" style="edgeStyle=none;html=1;exitX=1;exitY=0.5;exitDx=0;exitDy=0;entryX=0;entryY=0.5;entryDx=0;entryDy=0;" parent="1" source="50" target="53" edge="1">
                    <mxGeometry relative="1" as="geometry"/>
                </mxCell>
                <mxCell id="64" style="edgeStyle=none;html=1;exitX=1;exitY=0.5;exitDx=0;exitDy=0;entryX=0;entryY=0.5;entryDx=0;entryDy=0;" parent="1" source="35" target="55" edge="1">
                    <mxGeometry relative="1" as="geometry"/>
                </mxCell>
                <mxCell id="59" style="edgeStyle=none;html=1;exitX=0.5;exitY=1;exitDx=0;exitDy=0;entryX=0.5;entryY=0;entryDx=0;entryDy=0;" parent="1" source="33" target="57" edge="1">
                    <mxGeometry relative="1" as="geometry"/>
                </mxCell>
                <mxCell id="73" value="" style="edgeStyle=none;html=1;exitX=0.5;exitY=1;exitDx=0;exitDy=0;entryX=0.5;entryY=0;entryDx=0;entryDy=0;startArrow=none;endArrow=none;" parent="1" source="69" target="72" edge="1">
                    <mxGeometry relative="1" as="geometry">
                        <mxPoint x="-485.0000000000002" y="200" as="sourcePoint"/>
                        <mxPoint x="-994.9999999999998" y="300" as="targetPoint"/>
                    </mxGeometry>
                </mxCell>
                <mxCell id="76" style="edgeStyle=none;html=1;exitX=0.5;exitY=1;exitDx=0;exitDy=0;entryX=-0.009;entryY=-0.034;entryDx=0;entryDy=0;entryPerimeter=0;" parent="1" source="72" target="77" edge="1">
                    <mxGeometry relative="1" as="geometry">
                        <mxPoint x="-307.93650793650795" y="432.93650793650784" as="targetPoint"/>
                    </mxGeometry>
                </mxCell>
                <mxCell id="72" value="Account" style="whiteSpace=wrap;html=1;" parent="1" vertex="1">
                    <mxGeometry x="-560" y="290" width="120" height="60" as="geometry"/>
                </mxCell>
                <mxCell id="79" style="edgeStyle=none;html=1;exitX=0;exitY=1;exitDx=0;exitDy=3;exitPerimeter=0;entryX=0.472;entryY=0;entryDx=0;entryDy=0;entryPerimeter=0;" parent="1" source="77" target="78" edge="1">
                    <mxGeometry relative="1" as="geometry"/>
                </mxCell>
                <mxCell id="81" style="edgeStyle=none;html=1;exitX=1;exitY=0.5;exitDx=0;exitDy=0;exitPerimeter=0;entryX=0;entryY=0.5;entryDx=0;entryDy=0;" parent="1" source="77" target="80" edge="1">
                    <mxGeometry relative="1" as="geometry"/>
                </mxCell>
                <mxCell id="77" value="OR" style="triangle;whiteSpace=wrap;html=1;points=[[0,0.25,0,0,0],[0,0.5,0,0,0],[0,0.75,0,0,0],[0,1,0,0,3],[0.5,0.25,0,0,0],[0.5,0.75,0,0,0],[1,0.5,0,0,0]];" parent="1" vertex="1">
                    <mxGeometry x="-500" y="430" width="60" height="80" as="geometry"/>
                </mxCell>
                <mxCell id="78" value="Verified" style="whiteSpace=wrap;html=1;" parent="1" vertex="1">
                    <mxGeometry x="-710" y="410" width="120" height="60" as="geometry"/>
                </mxCell>
                <mxCell id="80" value="Not Verified" style="whiteSpace=wrap;html=1;" parent="1" vertex="1">
                    <mxGeometry x="-360" y="440" width="120" height="60" as="geometry"/>
                </mxCell>
                <mxCell id="82" value="Cannot Access" style="whiteSpace=wrap;html=1;" parent="1" vertex="1">
                    <mxGeometry x="-360" y="500" width="120" height="60" as="geometry"/>
                </mxCell>
                <mxCell id="83" style="edgeStyle=none;html=1;exitX=0;exitY=0.5;exitDx=0;exitDy=0;entryX=1;entryY=0.5;entryDx=0;entryDy=0;" parent="1" source="42" target="72" edge="1">
                    <mxGeometry relative="1" as="geometry"/>
                </mxCell>
            </root>
        </mxGraphModel>
    </diagram>
</mxfile>